<svg width="31" height="31" viewBox="0 0 31 31" fill="none" xmlns="http://www.w3.org/2000/svg">
<path d="M13.9895 1.23765C14.6233 0.0119278 16.3762 0.0119278 17.01 1.23765L21.0457 9.04302C21.2074 9.3558 21.4623 9.61065 21.7752 9.77238L29.5804 13.8081C30.8062 14.4419 30.8062 16.1948 29.5804 16.8286L21.7752 20.8643C21.4623 21.026 21.2074 21.2809 21.0457 21.5938L17.01 29.399C16.3762 30.6248 14.6233 30.6248 13.9895 29.399L9.95378 21.5938C9.79205 21.2809 9.5372 21.026 9.22442 20.8643L1.41905 16.8286C0.193324 16.1948 0.193324 14.4419 1.41905 13.8081L9.22442 9.77238C9.5372 9.61065 9.79205 9.3558 9.95378 9.04302L13.9895 1.23765Z" fill="#2E3548"/>
</svg>
