<svg width="114" height="76" viewBox="0 0 114 76" fill="none" xmlns="http://www.w3.org/2000/svg">
<path d="M107.657 0.790039H6.69611C3.52282 0.790039 0.926758 3.3861 0.926758 6.55917V70.0207C0.926758 73.1935 3.52282 75.79 6.69611 75.79H107.657C110.83 75.79 113.427 73.194 113.427 70.0207V6.55917C113.427 3.3861 110.83 0.790039 107.657 0.790039ZM105.492 5.11667L60.4954 38.867C59.6864 39.4827 58.4445 39.8679 57.1764 39.8622C55.9086 39.8679 54.6669 39.4827 53.8577 38.867L8.86085 5.11667H105.492ZM81.4564 41.094L105.976 71.3826C106 71.4129 106.03 71.436 106.056 71.4634H8.29681C8.32274 71.4346 8.35306 71.4129 8.37767 71.3826L32.8969 41.094C33.6482 40.1652 33.5058 38.8035 32.5752 38.0505C31.6465 37.2993 30.2848 37.4417 29.5333 38.3707L5.2536 68.3635V7.82106L51.2629 42.3282C52.9924 43.6162 55.0965 44.1831 57.1762 44.1888C59.2531 44.1844 61.3589 43.6175 63.0895 42.3282L109.099 7.82106V68.3631L84.8197 38.3707C84.0683 37.4419 82.7053 37.2991 81.7779 38.0505C80.8475 38.8018 80.7047 40.1652 81.4564 41.094Z" fill="#F5CF81"/>
</svg>
