<svg width="16" height="17" viewBox="0 0 16 17" fill="none" xmlns="http://www.w3.org/2000/svg">
<path d="M7.19454 0.94781C7.53255 0.294089 8.46744 0.294089 8.80544 0.94781L10.9578 5.11067C11.0441 5.27749 11.18 5.41341 11.3469 5.49966L15.5097 7.65206C16.1634 7.99007 16.1634 8.92496 15.5097 9.26296L11.3469 11.4154C11.18 11.5016 11.0441 11.6375 10.9578 11.8044L8.80544 15.9672C8.46744 16.621 7.53255 16.621 7.19454 15.9672L5.04214 11.8044C4.95589 11.6375 4.81997 11.5016 4.65315 11.4154L0.490291 9.26296C-0.16343 8.92496 -0.16343 7.99007 0.490291 7.65206L4.65315 5.49966C4.81997 5.41341 4.95589 5.27749 5.04214 5.11067L7.19454 0.94781Z" fill="#CEAB66"/>
</svg>
